<?xml version="1.0" standalone="no"?><!DOCTYPE svg PUBLIC "-//W3C//DTD SVG 1.1//EN" "http://www.w3.org/Graphics/SVG/1.1/DTD/svg11.dtd"><svg t="1580871585810" class="icon" viewBox="0 0 1024 1024" version="1.1" xmlns="http://www.w3.org/2000/svg" p-id="9290" xmlns:xlink="http://www.w3.org/1999/xlink" width="200" height="200"><defs><style type="text/css"></style></defs><path d="M568.072747 735.98998a2349.618026 2349.618026 0 0 1 2.378844-353.258307A965.980509 965.980509 0 0 1 664.925674 36.439979s-4.58777 53.014234-7.646283 124.889301-1.189422 168.558076-3.058514 255.725711c-3.058513 154.624848-4.417853 316.726063-4.417853 316.726063z" fill="#329664" p-id="9291"></path><path d="M386.091195 744.995603s-52.504481-205.090321-82.409947-388.091378a927.239338 927.239338 0 0 0-73.574241-246.210335s134.744511 139.672116 173.655599 296.335973a2545.023054 2545.023054 0 0 1 54.883325 321.823586z" fill="#42B275" p-id="9292"></path><path d="M499.935863 739.898081a2224.218973 2224.218973 0 0 0-2.378843-330.319457 1028.510118 1028.510118 0 0 0-78.162012-322.84309s-14.273063 152.925674-22.259181 334.567392c-6.286944 144.429803 33.133896 320.973998 33.133896 320.973999z" fill="#329664" p-id="9293"></path><path d="M476.657178 721.377082s-12.743806-172.466177-10.195045-368.890709C468.840976 185.967305 528.991742 4.495505 528.991742 4.495505s53.354069 198.633459 53.354068 353.428225-21.579512 363.453352-21.579512 363.453352z" fill="#42B275" p-id="9294"></path><path d="M377.255489 663.095409A612.552284 612.552284 0 0 0 317.104724 480.264269C263.410821 372.876463 189.15691 338.723062 189.15691 338.723062a718.070999 718.070999 0 0 1 91.585487 166.688985A1187.043067 1187.043067 0 0 1 325.090843 665.984005z" fill="#329664" p-id="9295"></path><path d="M603.925322 676.688802a1648.198933 1648.198933 0 0 1 62.869444-345.272189c32.284309-107.217889 118.942191-217.154457 118.942191-217.154457a2264.829235 2264.829235 0 0 0-49.785803 268.809352 2111.393809 2111.393809 0 0 1-67.627131 299.224569z" fill="#42B275" p-id="9296"></path><path d="M659.658234 656.128795a572.621691 572.621691 0 0 1 55.90283-169.917416c49.95572-101.950449 119.791778-133.385171 119.791778-133.385171a671.003875 671.003875 0 0 0-84.958708 155.984187 1109.390808 1109.390808 0 0 0-41.459849 150.037078z" fill="#329664" p-id="9297"></path><path d="M658.63873 1024H373.517306a53.523986 53.523986 0 0 1-53.014234-46.217537L274.115618 645.593915h483.584965l-46.047619 332.188548A53.523986 53.523986 0 0 1 658.63873 1024z" fill="#685245" p-id="9298"></path><path d="M743.087686 751.11263l6.796696-49.106133H282.271654l6.796696 49.106133H743.087686z" fill="#513D33" p-id="9299"></path><path d="M748.864878 713.390964h-465.57372a17.841329 17.841329 0 0 1-16.991741-14.273063l-7.476367-37.041997a17.841329 17.841329 0 0 1 16.991742-21.409594h480.356535a17.841329 17.841329 0 0 1 16.991741 21.409594L766.876124 698.947984a17.841329 17.841329 0 0 1-18.011246 14.44298z" fill="#7C6559" p-id="9300"></path></svg>